<svg id="Layer_1" data-name="Layer 1" xmlns="http://www.w3.org/2000/svg" viewBox="0 0 269.83 124.38"><title>card aces</title><path d="M256.49,748.13c-3.15-5.85-2.5-10.58,1.83-14.34,3.39-3,8.86-3,12.73-.19,4.3,3.17,5,7.91,2,14.57a9.2,9.2,0,0,1,9.38-.3,9.5,9.5,0,0,1,5,7.72,10.93,10.93,0,0,1-3.44,9.95,9.89,9.89,0,0,1-8.22,2.37,12,12,0,0,1-9.07-5.9,6.89,6.89,0,0,0-.49-.52c.48,2.75.75,5.29,1.41,7.73s1.72,4.74,2.61,7.12h-10.9c.87-2.31,1.91-4.58,2.57-7a44.39,44.39,0,0,0,1.18-7.44c-.18.21-.38.41-.54.63-2.77,3.71-6.44,5.68-11.08,5.38a9.44,9.44,0,0,1-7.32-4,11.7,11.7,0,0,1,.61-14.26c2.71-3.2,7.49-3.54,10.61-2.14Z" transform="translate(-17.7 -707.36)"/><path d="M85.08,737.64c.64,5,1.36,10.06,4.23,14.58H77.75c2.76-4.43,3.59-9.34,4.07-14.37a14.12,14.12,0,0,1-6,5,10.43,10.43,0,0,1-15.09-9.6,10.74,10.74,0,0,1,3.59-8.49,9.32,9.32,0,0,1,9.73-1.31l1.21.6c-1.53-2.7-2.42-5.29-1.93-8.15a10,10,0,0,1,4.37-6.73,10.3,10.3,0,0,1,12.34.51c3.37,2.93,5.53,7.85,1.73,14.36a9.25,9.25,0,0,1,9.39-.31,9.49,9.49,0,0,1,5,7.7,10.9,10.9,0,0,1-3.33,9.87,9.88,9.88,0,0,1-8.41,2.46A12,12,0,0,1,85.51,738a1.51,1.51,0,0,0-.22-.28C85.24,737.67,85.16,737.67,85.08,737.64Z" transform="translate(-17.7 -707.36)"/><path d="M264.86,795.9a14.06,14.06,0,0,1,4-6.41,10.1,10.1,0,0,1,15.61,2.93,9.48,9.48,0,0,1,.49,6.43c-.85,3.76-2.88,6.88-5.19,9.87-3.16,4.1-6.38,8.16-9.49,12.3A32.14,32.14,0,0,0,265,831.57c-.7-1.68-1.27-3.24-2-4.74-2-4.22-4.86-7.85-7.66-11.53-3.07-4-6.18-8-9-12.19a10.86,10.86,0,0,1-1.71-8.92c1.22-5,6-7.88,11.21-7,4.08.73,6.6,3.3,8.27,6.89C264.31,794.63,264.52,795.14,264.86,795.9Z" transform="translate(-17.7 -707.36)"/><path d="M83.63,771.76a13.94,13.94,0,0,1,4-6.43,10.14,10.14,0,0,1,14.94,1.86c1.85,2.7,1.68,5.63.83,8.62-1.06,3.74-3.36,6.74-5.65,9.77-3.6,4.76-7.28,9.47-10.67,14.38-1.49,2.16-2.34,4.76-3.48,7.15a.72.72,0,0,1-.16-.25c-1.55-5.09-4.47-9.4-7.67-13.54-3-3.92-6.1-7.8-9.07-11.76a15.34,15.34,0,0,1-3.57-8.82c-.19-6.4,5.21-10.86,11.61-9.61,4,.78,6.49,3.35,8.14,6.9C83.09,770.53,83.31,771,83.63,771.76Z" transform="translate(-17.7 -707.36)"/><path d="M218.86,818.79c.54,2.47.87,4.67,1.52,6.77s1.63,4.11,2.48,6.18h-11.5c2.48-4,3.43-8.3,4-12.82-1,.85-1.85,1.73-2.84,2.47a8.3,8.3,0,0,1-13.33-4.6c-.92-3.64.28-6.8,2.71-9.45s5.29-5.42,8-8.07a23.64,23.64,0,0,0,7-11.57,2.16,2.16,0,0,1,.25-.43c.65,1.67,1.22,3.34,2,5,1.76,3.83,4.9,6.53,7.8,9.44a76.42,76.42,0,0,1,6.78,7.4,8.78,8.78,0,0,1,.94,9.38,8.34,8.34,0,0,1-12.74,3C220.92,820.68,220,819.81,218.86,818.79Z" transform="translate(-17.7 -707.36)"/><path d="M37.81,794.9c.58,4.46,1.5,8.78,4,12.74H30.11c2.48-4,3.44-8.34,4-12.87a37.42,37.42,0,0,1-2.93,2.54c-5.72,4.07-12.76.6-13.44-5.67a10.4,10.4,0,0,1,2.95-8.48c2.73-3,5.61-5.8,8.49-8.61a23.34,23.34,0,0,0,6.51-10.92,3.2,3.2,0,0,1,.22-.5c.66,1.69,1.22,3.36,2,5,1.57,3.4,4.24,5.92,6.85,8.53a109.78,109.78,0,0,1,7.65,8.21,8.65,8.65,0,0,1,1.27,8.8,8.2,8.2,0,0,1-12.37,4A40.34,40.34,0,0,1,37.81,794.9Z" transform="translate(-17.7 -707.36)"/><path d="M217.2,731.61a171.15,171.15,0,0,0,17.7,22.32c-6.4,7-12.54,14.23-17.71,22.4-5.14-8.15-11.27-15.32-17.68-22.39A176.05,176.05,0,0,0,217.2,731.61Z" transform="translate(-17.7 -707.36)"/><path d="M36,707.49a173.67,173.67,0,0,0,17.7,22.3C47.28,736.85,41.11,744,36,752.2,30.8,744,24.64,736.86,18.27,729.8A176.49,176.49,0,0,0,36,707.49Z" transform="translate(-17.7 -707.36)"/></svg>